<?xml version="1.0"?>
<svg xmlns="http://www.w3.org/2000/svg" xmlns:xlink="http://www.w3.org/1999/xlink" contentStyleType="text/css" height="468.75px" preserveAspectRatio="none" style="width:854px;height:468px;background:#FFFFFF;" version="1.1" viewBox="0 0 854 468" width="854.6875px" zoomAndPan="magnify">
  <defs/>
  <g>
    <text fill="#000000" font-family="sans-serif" font-size="21.875" font-weight="bold" lengthAdjust="spacing" textLength="241.1874" x="304.4584" y="39.0093">Lightspeed Core Stack</text>
    <line style="stroke:#C0C0C0;stroke-width:1.5625;" x1="0" x2="0" y1="62.6061" y2="87.6061"/>
    <text fill="#000000" font-family="sans-serif" font-size="21.875" font-weight="bold" lengthAdjust="spacing" textLength="52.7842" x="399.4413" y="85.9904">2026</text>
    <line style="stroke:#C0C0C0;stroke-width:1.5625;" x1="851.6667" x2="851.6667" y1="62.6061" y2="87.6061"/>
    <line style="stroke:#C0C0C0;stroke-width:1.5625;" x1="0" x2="0" y1="87.6061" y2="112.6061"/>
    <line style="stroke:#C0C0C0;stroke-width:1.5625;" x1="72.3333" x2="72.3333" y1="87.6061" y2="112.6061"/>
    <text fill="#000000" font-family="sans-serif" font-size="21.875" lengthAdjust="spacing" textLength="31.7624" x="20.2855" y="110.9904">Jan</text>
    <line style="stroke:#C0C0C0;stroke-width:1.5625;" x1="137.6667" x2="137.6667" y1="87.6061" y2="112.6061"/>
    <text fill="#000000" font-family="sans-serif" font-size="21.875" lengthAdjust="spacing" textLength="37.1436" x="86.4282" y="110.9904">Feb</text>
    <line style="stroke:#C0C0C0;stroke-width:1.5625;" x1="210" x2="210" y1="87.6061" y2="112.6061"/>
    <text fill="#000000" font-family="sans-serif" font-size="21.875" lengthAdjust="spacing" textLength="65.1654" x="141.2506" y="110.9904">March</text>
    <line style="stroke:#C0C0C0;stroke-width:1.5625;" x1="280" x2="280" y1="87.6061" y2="112.6061"/>
    <text fill="#000000" font-family="sans-serif" font-size="21.875" lengthAdjust="spacing" textLength="47.753" x="221.1235" y="110.9904">April</text>
    <line style="stroke:#C0C0C0;stroke-width:1.5625;" x1="352.3333" x2="352.3333" y1="87.6061" y2="112.6061"/>
    <text fill="#000000" font-family="sans-serif" font-size="21.875" lengthAdjust="spacing" textLength="43.2686" x="294.5324" y="110.9904">May</text>
    <line style="stroke:#C0C0C0;stroke-width:1.5625;" x1="422.3333" x2="422.3333" y1="87.6061" y2="112.6061"/>
    <text fill="#000000" font-family="sans-serif" font-size="21.875" lengthAdjust="spacing" textLength="45.3467" x="364.66" y="110.9904">June</text>
    <line style="stroke:#C0C0C0;stroke-width:1.5625;" x1="494.6667" x2="494.6667" y1="87.6061" y2="112.6061"/>
    <text fill="#000000" font-family="sans-serif" font-size="21.875" lengthAdjust="spacing" textLength="36.2905" x="440.3548" y="110.9904">July</text>
    <line style="stroke:#C0C0C0;stroke-width:1.5625;" x1="567" x2="567" y1="87.6061" y2="112.6061"/>
    <text fill="#000000" font-family="sans-serif" font-size="21.875" lengthAdjust="spacing" textLength="40.9498" x="510.3584" y="110.9904">Aug</text>
    <line style="stroke:#C0C0C0;stroke-width:1.5625;" x1="637" x2="637" y1="87.6061" y2="112.6061"/>
    <text fill="#000000" font-family="sans-serif" font-size="21.875" lengthAdjust="spacing" textLength="37.7999" x="583.1001" y="110.9904">Sep</text>
    <line style="stroke:#C0C0C0;stroke-width:1.5625;" x1="709.3333" x2="709.3333" y1="87.6061" y2="112.6061"/>
    <text fill="#000000" font-family="sans-serif" font-size="21.875" lengthAdjust="spacing" textLength="35.4811" x="655.4261" y="110.9904">Oct</text>
    <line style="stroke:#C0C0C0;stroke-width:1.5625;" x1="779.3333" x2="779.3333" y1="87.6061" y2="112.6061"/>
    <text fill="#000000" font-family="sans-serif" font-size="21.875" lengthAdjust="spacing" textLength="40.9717" x="723.8475" y="110.9904">Nov</text>
    <text fill="#000000" font-family="sans-serif" font-size="21.875" lengthAdjust="spacing" textLength="38.8061" x="796.097" y="110.9904">Dec</text>
    <line style="stroke:#C0C0C0;stroke-width:1.5625;" x1="851.6667" x2="851.6667" y1="87.6061" y2="112.6061"/>
    <line style="stroke:#C0C0C0;stroke-width:1.5625;" x1="0" x2="851.6667" y1="62.6061" y2="62.6061"/>
    <line style="stroke:#C0C0C0;stroke-width:1.5625;" x1="0" x2="851.6667" y1="87.6061" y2="87.6061"/>
    <line style="stroke:#C0C0C0;stroke-width:1.5625;" x1="0" x2="851.6667" y1="112.6061" y2="112.6061"/>
    <line style="stroke:#A80036;stroke-width:2.34375;" x1="278.4375" x2="287.8125" y1="217.9758" y2="217.9758"/>
    <line style="stroke:#A80036;stroke-width:2.34375;" x1="287.8125" x2="287.8125" y1="217.9758" y2="232.8054"/>
    <line style="stroke:#A80036;stroke-width:2.34375;" x1="287.8125" x2="265.9375" y1="232.8054" y2="232.8054"/>
    <line style="stroke:#A80036;stroke-width:2.34375;" x1="265.9375" x2="265.9375" y1="232.8054" y2="247.635"/>
    <line style="stroke:#A80036;stroke-width:2.34375;" x1="265.9375" x2="278.4375" y1="247.635" y2="247.635"/>
    <polygon fill="#A80036" points="272.1875,241.385,272.1875,247.635,272.1875,253.885,278.4375,247.635" style="stroke:#A80036;stroke-width:2.34375;"/>
    <line style="stroke:#A80036;stroke-width:2.34375;" x1="350.7708" x2="360.1458" y1="247.635" y2="247.635"/>
    <line style="stroke:#A80036;stroke-width:2.34375;" x1="360.1458" x2="360.1458" y1="247.635" y2="262.4646"/>
    <line style="stroke:#A80036;stroke-width:2.34375;" x1="360.1458" x2="338.2708" y1="262.4646" y2="262.4646"/>
    <line style="stroke:#A80036;stroke-width:2.34375;" x1="338.2708" x2="338.2708" y1="262.4646" y2="277.2942"/>
    <line style="stroke:#A80036;stroke-width:2.34375;" x1="338.2708" x2="350.7708" y1="277.2942" y2="277.2942"/>
    <polygon fill="#A80036" points="344.5208,271.0442,344.5208,277.2942,344.5208,283.5442,350.7708,277.2942" style="stroke:#A80036;stroke-width:2.34375;"/>
    <line style="stroke:#A80036;stroke-width:2.34375;" x1="493.1042" x2="502.4792" y1="306.9534" y2="306.9534"/>
    <line style="stroke:#A80036;stroke-width:2.34375;" x1="502.4792" x2="502.4792" y1="306.9534" y2="321.783"/>
    <line style="stroke:#A80036;stroke-width:2.34375;" x1="502.4792" x2="480.6042" y1="321.783" y2="321.783"/>
    <line style="stroke:#A80036;stroke-width:2.34375;" x1="480.6042" x2="480.6042" y1="321.783" y2="336.6126"/>
    <line style="stroke:#A80036;stroke-width:2.34375;" x1="480.6042" x2="493.1042" y1="336.6126" y2="336.6126"/>
    <polygon fill="#A80036" points="486.8542,330.3626,486.8542,336.6126,486.8542,342.8626,493.1042,336.6126" style="stroke:#A80036;stroke-width:2.34375;"/>
    <line style="stroke:#A80036;stroke-width:2.34375;" x1="565.4375" x2="574.8125" y1="336.6126" y2="336.6126"/>
    <line style="stroke:#A80036;stroke-width:2.34375;" x1="574.8125" x2="574.8125" y1="336.6126" y2="351.4422"/>
    <line style="stroke:#A80036;stroke-width:2.34375;" x1="574.8125" x2="552.9375" y1="351.4422" y2="351.4422"/>
    <line style="stroke:#A80036;stroke-width:2.34375;" x1="552.9375" x2="552.9375" y1="351.4422" y2="366.2718"/>
    <line style="stroke:#A80036;stroke-width:2.34375;" x1="552.9375" x2="565.4375" y1="366.2718" y2="366.2718"/>
    <polygon fill="#A80036" points="559.1875,360.0218,559.1875,366.2718,559.1875,372.5218,565.4375,366.2718" style="stroke:#A80036;stroke-width:2.34375;"/>
    <rect fill="#FF8080" height="23.4092" style="stroke:none;stroke-width:1.5625;" width="66.0833" x="3.125" y="117.2936"/>
    <line style="stroke:#FF8080;stroke-width:1.5625;" x1="3.125" x2="69.2083" y1="117.2936" y2="117.2936"/>
    <line style="stroke:#FF8080;stroke-width:1.5625;" x1="3.125" x2="69.2083" y1="140.7028" y2="140.7028"/>
    <line style="stroke:#FF8080;stroke-width:1.5625;" x1="3.125" x2="3.125" y1="117.2936" y2="140.7028"/>
    <line style="stroke:#FF8080;stroke-width:1.5625;" x1="69.2083" x2="69.2083" y1="117.2936" y2="140.7028"/>
    <rect fill="#FF8080" height="23.4092" style="stroke:none;stroke-width:1.5625;" width="59.0833" x="75.4583" y="146.9528"/>
    <line style="stroke:#FF8080;stroke-width:1.5625;" x1="75.4583" x2="134.5417" y1="146.9528" y2="146.9528"/>
    <line style="stroke:#FF8080;stroke-width:1.5625;" x1="75.4583" x2="134.5417" y1="170.362" y2="170.362"/>
    <line style="stroke:#FF8080;stroke-width:1.5625;" x1="75.4583" x2="75.4583" y1="146.9528" y2="170.362"/>
    <line style="stroke:#FF8080;stroke-width:1.5625;" x1="134.5417" x2="134.5417" y1="146.9528" y2="170.362"/>
    <rect fill="#80FF80" height="23.4092" style="stroke:none;stroke-width:1.5625;" width="423.0833" x="140.7917" y="176.612"/>
    <line style="stroke:#80FF80;stroke-width:1.5625;" x1="140.7917" x2="563.875" y1="176.612" y2="176.612"/>
    <line style="stroke:#80FF80;stroke-width:1.5625;" x1="140.7917" x2="563.875" y1="200.0212" y2="200.0212"/>
    <line style="stroke:#80FF80;stroke-width:1.5625;" x1="140.7917" x2="140.7917" y1="176.612" y2="200.0212"/>
    <line style="stroke:#80FF80;stroke-width:1.5625;" x1="563.875" x2="563.875" y1="176.612" y2="200.0212"/>
    <rect fill="#FFFF00" height="23.4092" style="stroke:none;stroke-width:1.5625;" width="63.75" x="213.125" y="206.2712"/>
    <line style="stroke:#FFFF00;stroke-width:1.5625;" x1="213.125" x2="276.875" y1="206.2712" y2="206.2712"/>
    <line style="stroke:#FFFF00;stroke-width:1.5625;" x1="213.125" x2="276.875" y1="229.6804" y2="229.6804"/>
    <line style="stroke:#FFFF00;stroke-width:1.5625;" x1="213.125" x2="213.125" y1="206.2712" y2="229.6804"/>
    <line style="stroke:#FFFF00;stroke-width:1.5625;" x1="276.875" x2="276.875" y1="206.2712" y2="229.6804"/>
    <rect fill="#FFFF00" height="23.4092" style="stroke:none;stroke-width:1.5625;" width="66.0833" x="283.125" y="235.9304"/>
    <line style="stroke:#FFFF00;stroke-width:1.5625;" x1="283.125" x2="349.2083" y1="235.9304" y2="235.9304"/>
    <line style="stroke:#FFFF00;stroke-width:1.5625;" x1="283.125" x2="349.2083" y1="259.3396" y2="259.3396"/>
    <line style="stroke:#FFFF00;stroke-width:1.5625;" x1="283.125" x2="283.125" y1="235.9304" y2="259.3396"/>
    <line style="stroke:#FFFF00;stroke-width:1.5625;" x1="349.2083" x2="349.2083" y1="235.9304" y2="259.3396"/>
    <rect fill="#FFFF00" height="23.4092" style="stroke:none;stroke-width:1.5625;" width="423.0833" x="355.4583" y="265.5896"/>
    <line style="stroke:#FFFF00;stroke-width:1.5625;" x1="355.4583" x2="778.5417" y1="265.5896" y2="265.5896"/>
    <line style="stroke:#FFFF00;stroke-width:1.5625;" x1="355.4583" x2="778.5417" y1="288.9988" y2="288.9988"/>
    <line style="stroke:#FFFF00;stroke-width:1.5625;" x1="355.4583" x2="355.4583" y1="265.5896" y2="288.9988"/>
    <line style="stroke:#FFFF00;stroke-width:1.5625;" x1="778.5417" x2="778.5417" y1="265.5896" y2="288.9988"/>
    <rect fill="#FFFF00" height="23.4092" style="stroke:none;stroke-width:1.5625;" width="66.0833" x="425.4583" y="295.2488"/>
    <line style="stroke:#FFFF00;stroke-width:1.5625;" x1="425.4583" x2="491.5417" y1="295.2488" y2="295.2488"/>
    <line style="stroke:#FFFF00;stroke-width:1.5625;" x1="425.4583" x2="491.5417" y1="318.658" y2="318.658"/>
    <line style="stroke:#FFFF00;stroke-width:1.5625;" x1="425.4583" x2="425.4583" y1="295.2488" y2="318.658"/>
    <line style="stroke:#FFFF00;stroke-width:1.5625;" x1="491.5417" x2="491.5417" y1="295.2488" y2="318.658"/>
    <rect fill="#FFFF00" height="23.4092" style="stroke:none;stroke-width:1.5625;" width="66.0833" x="497.7917" y="324.908"/>
    <line style="stroke:#FFFF00;stroke-width:1.5625;" x1="497.7917" x2="563.875" y1="324.908" y2="324.908"/>
    <line style="stroke:#FFFF00;stroke-width:1.5625;" x1="497.7917" x2="563.875" y1="348.3172" y2="348.3172"/>
    <line style="stroke:#FFFF00;stroke-width:1.5625;" x1="497.7917" x2="497.7917" y1="324.908" y2="348.3172"/>
    <line style="stroke:#FFFF00;stroke-width:1.5625;" x1="563.875" x2="563.875" y1="324.908" y2="348.3172"/>
    <rect fill="#FFFF00" height="23.4092" style="stroke:none;stroke-width:1.5625;" width="278.4167" x="570.125" y="354.5672"/>
    <line style="stroke:#FFFF00;stroke-width:1.5625;" x1="570.125" x2="848.5417" y1="354.5672" y2="354.5672"/>
    <line style="stroke:#FFFF00;stroke-width:1.5625;" x1="570.125" x2="848.5417" y1="377.9764" y2="377.9764"/>
    <line style="stroke:#FFFF00;stroke-width:1.5625;" x1="570.125" x2="570.125" y1="354.5672" y2="377.9764"/>
    <line style="stroke:#FFFF00;stroke-width:1.5625;" x1="848.5417" x2="848.5417" y1="354.5672" y2="377.9764"/>
    <text fill="#000000" font-family="sans-serif" font-size="17.1875" lengthAdjust="spacing" textLength="24.2686" x="9.375" y="135.6669">0.3</text>
    <text fill="#000000" font-family="sans-serif" font-size="17.1875" lengthAdjust="spacing" textLength="24.2686" x="81.7083" y="165.3261">0.4</text>
    <text fill="#000000" font-family="sans-serif" font-size="17.1875" lengthAdjust="spacing" textLength="24.2686" x="147.0417" y="194.9853">0.5</text>
    <text fill="#000000" font-family="sans-serif" font-size="17.1875" lengthAdjust="spacing" textLength="49.4481" x="219.375" y="224.6445">0.6rc1</text>
    <text fill="#000000" font-family="sans-serif" font-size="17.1875" lengthAdjust="spacing" textLength="49.4481" x="289.375" y="254.3037">0.6rc2</text>
    <text fill="#000000" font-family="sans-serif" font-size="17.1875" lengthAdjust="spacing" textLength="24.2686" x="361.7083" y="283.9629">0.6</text>
    <text fill="#000000" font-family="sans-serif" font-size="17.1875" lengthAdjust="spacing" textLength="49.4481" x="431.7083" y="313.6221">0.7rc1</text>
    <text fill="#000000" font-family="sans-serif" font-size="17.1875" lengthAdjust="spacing" textLength="49.4481" x="504.0417" y="343.2813">0.7rc2</text>
    <text fill="#000000" font-family="sans-serif" font-size="17.1875" lengthAdjust="spacing" textLength="24.2686" x="576.375" y="372.9405">0.7</text>
    <line style="stroke:#C0C0C0;stroke-width:1.5625;" x1="0" x2="0" y1="381.1014" y2="406.1014"/>
    <line style="stroke:#C0C0C0;stroke-width:1.5625;" x1="72.3333" x2="72.3333" y1="381.1014" y2="406.1014"/>
    <text fill="#000000" font-family="sans-serif" font-size="21.875" lengthAdjust="spacing" textLength="31.7624" x="20.2855" y="404.4857">Jan</text>
    <line style="stroke:#C0C0C0;stroke-width:1.5625;" x1="137.6667" x2="137.6667" y1="381.1014" y2="406.1014"/>
    <text fill="#000000" font-family="sans-serif" font-size="21.875" lengthAdjust="spacing" textLength="37.1436" x="86.4282" y="404.4857">Feb</text>
    <line style="stroke:#C0C0C0;stroke-width:1.5625;" x1="210" x2="210" y1="381.1014" y2="406.1014"/>
    <text fill="#000000" font-family="sans-serif" font-size="21.875" lengthAdjust="spacing" textLength="65.1654" x="141.2506" y="404.4857">March</text>
    <line style="stroke:#C0C0C0;stroke-width:1.5625;" x1="280" x2="280" y1="381.1014" y2="406.1014"/>
    <text fill="#000000" font-family="sans-serif" font-size="21.875" lengthAdjust="spacing" textLength="47.753" x="221.1235" y="404.4857">April</text>
    <line style="stroke:#C0C0C0;stroke-width:1.5625;" x1="352.3333" x2="352.3333" y1="381.1014" y2="406.1014"/>
    <text fill="#000000" font-family="sans-serif" font-size="21.875" lengthAdjust="spacing" textLength="43.2686" x="294.5324" y="404.4857">May</text>
    <line style="stroke:#C0C0C0;stroke-width:1.5625;" x1="422.3333" x2="422.3333" y1="381.1014" y2="406.1014"/>
    <text fill="#000000" font-family="sans-serif" font-size="21.875" lengthAdjust="spacing" textLength="45.3467" x="364.66" y="404.4857">June</text>
    <line style="stroke:#C0C0C0;stroke-width:1.5625;" x1="494.6667" x2="494.6667" y1="381.1014" y2="406.1014"/>
    <text fill="#000000" font-family="sans-serif" font-size="21.875" lengthAdjust="spacing" textLength="36.2905" x="440.3548" y="404.4857">July</text>
    <line style="stroke:#C0C0C0;stroke-width:1.5625;" x1="567" x2="567" y1="381.1014" y2="406.1014"/>
    <text fill="#000000" font-family="sans-serif" font-size="21.875" lengthAdjust="spacing" textLength="40.9498" x="510.3584" y="404.4857">Aug</text>
    <line style="stroke:#C0C0C0;stroke-width:1.5625;" x1="637" x2="637" y1="381.1014" y2="406.1014"/>
    <text fill="#000000" font-family="sans-serif" font-size="21.875" lengthAdjust="spacing" textLength="37.7999" x="583.1001" y="404.4857">Sep</text>
    <line style="stroke:#C0C0C0;stroke-width:1.5625;" x1="709.3333" x2="709.3333" y1="381.1014" y2="406.1014"/>
    <text fill="#000000" font-family="sans-serif" font-size="21.875" lengthAdjust="spacing" textLength="35.4811" x="655.4261" y="404.4857">Oct</text>
    <line style="stroke:#C0C0C0;stroke-width:1.5625;" x1="779.3333" x2="779.3333" y1="381.1014" y2="406.1014"/>
    <text fill="#000000" font-family="sans-serif" font-size="21.875" lengthAdjust="spacing" textLength="40.9717" x="723.8475" y="404.4857">Nov</text>
    <text fill="#000000" font-family="sans-serif" font-size="21.875" lengthAdjust="spacing" textLength="38.8061" x="796.097" y="404.4857">Dec</text>
    <line style="stroke:#C0C0C0;stroke-width:1.5625;" x1="851.6667" x2="851.6667" y1="381.1014" y2="406.1014"/>
    <line style="stroke:#C0C0C0;stroke-width:1.5625;" x1="0" x2="0" y1="406.1014" y2="431.1014"/>
    <text fill="#000000" font-family="sans-serif" font-size="21.875" font-weight="bold" lengthAdjust="spacing" textLength="52.7842" x="399.4413" y="429.4857">2026</text>
    <line style="stroke:#C0C0C0;stroke-width:1.5625;" x1="851.6667" x2="851.6667" y1="406.1014" y2="431.1014"/>
    <line style="stroke:#C0C0C0;stroke-width:1.5625;" x1="0" x2="851.6667" y1="381.1014" y2="381.1014"/>
    <line style="stroke:#C0C0C0;stroke-width:1.5625;" x1="0" x2="851.6667" y1="406.1014" y2="406.1014"/>
    <line style="stroke:#C0C0C0;stroke-width:1.5625;" x1="0" x2="851.6667" y1="431.1014" y2="431.1014"/>
    <text fill="#000000" font-family="sans-serif" font-size="21.875" lengthAdjust="spacing" textLength="156.0776" x="347.0133" y="457.6107">Versions status</text>
    <!--SRC=[ZPDFJ-Cm4CNl_XGZSG0EgUmaJK9FYCAkr6r5jO5U40UJkC5BQaVsfAj- -tNQvL_gKgGejiRZttjvqLnQv0OhhX29VP4AZBPYkskuuIie6mbiI0b1YRM0gQoUqJP2b33MHa2El7WX1MzGQWKBOQnRBJWejfOqHlyH1S9Mmq98moIWp3tkH2gq1NV8bLRuN6y8UQ23w76_5xWgGQZolHRjQj92eMldmcqLd2oN6SreHubxbD132OCm-veox54Y3oKxu2MZ7QUZ9APWFL3i0SL1H3sWZQXh_VS_9-nnXXxEq6_e08SlKHXuTNbgEzAsgQUKx2inTbJ9AnD-a4dtiqaztvGUKqhtiyc-_xCESDvCfv-pINjA5vvimgDANfctRCYbU-zcainhjzxFfh3U3HUmWHE91ybPpX4cRGqq0SP6B1v56OnlyhlEH7nEpdxEfs1rQme1fRHev5FRJUavcV0rXz-jGhaI8xXjX9fS_tejm8rQIwFLIYWaayNilI69Wok9a0lZhC1YHgx5ahSrkXk5BgMgHd1_zoF8o9IhgkMLOmj5njfnpSQTvVy0]-->
  </g>
</svg>
